<svg id="SvgjsSvg1177" width="828.5" height="786.2222442626953" xmlns="http://www.w3.org/2000/svg" version="1.1" xmlns:xlink="http://www.w3.org/1999/xlink" xmlns:svgjs="http://svgjs.com/svgjs"><defs id="SvgjsDefs1178"></defs><rect id="SvgjsRect1179" width="828.5" height="786.2222442626953" fill="#ffffff"></rect><g id="SvgjsG1180" transform="translate(25.92806995207536,132.22762722439234)"><path id="SvgjsPath1181" d="M 0 0L 777 0L 777 629.0987612406404L 0 629.0987612406404Z" stroke="#323232" stroke-width="2" fill-opacity="1" fill="#e5e5e5"></path><g id="SvgjsG1182"><text id="SvgjsText1183" font-family="微软雅黑" text-anchor="middle" font-size="13px" width="0" fill="#323232" font-weight="400" align="middle" anchor="middle" family="微软雅黑" size="13px" weight="400" font-style="" y="304.59938062032023" transform="rotate(0)"></text></g></g><g id="SvgjsG1184" transform="translate(145.5,630.8263922797296)"><path id="SvgjsPath1185" d="M 0 4Q 0 0 4 0L 643 0Q 647 0 647 4L 647 109Q 647 113 643 113L 4 113Q 0 113 0 109Z" stroke="#323232" stroke-width="2" fill-opacity="1" fill="#66b2ff"></path><g id="SvgjsG1186"><text id="SvgjsText1187" font-family="微软雅黑" text-anchor="middle" font-size="13px" width="0" fill="#323232" font-weight="400" align="middle" anchor="middle" family="微软雅黑" size="13px" weight="400" font-style="" y="46.55" transform="rotate(0)"></text></g></g><g id="SvgjsG1188" transform="translate(230,650.4375)"><path id="SvgjsPath1189" d="M 0 4Q 0 0 4 0L 138 0Q 142 0 142 4L 142 64Q 142 68 138 68L 4 68Q 0 68 0 64Z" stroke="#323232" stroke-width="2" fill-opacity="1" fill="#ffffcc"></path><g id="SvgjsG1190"><text id="SvgjsText1191" font-family="微软雅黑" text-anchor="middle" font-size="13px" width="73" fill="#323232" font-weight="400" align="middle" anchor="middle" family="微软雅黑" size="13px" weight="400" font-style="" y="24.05" transform="rotate(0)"><tspan id="SvgjsTspan1192" dy="16" x="71"><tspan id="SvgjsTspan1193" style="text-decoration:;">VNODE接口</tspan></tspan></text></g></g><g id="SvgjsG1194" transform="translate(398,650.4375)"><path id="SvgjsPath1195" d="M 0 4Q 0 0 4 0L 138 0Q 142 0 142 4L 142 64Q 142 68 138 68L 4 68Q 0 68 0 64Z" stroke="#323232" stroke-width="2" fill-opacity="1" fill="#e6ffcc"></path><g id="SvgjsG1196"><text id="SvgjsText1197" font-family="微软雅黑" text-anchor="middle" font-size="13px" width="52" fill="#323232" font-weight="400" align="middle" anchor="middle" family="微软雅黑" size="13px" weight="400" font-style="" y="24.05" transform="rotate(0)"><tspan id="SvgjsTspan1198" dy="16" x="71"><tspan id="SvgjsTspan1199" style="text-decoration:;">布局接口</tspan></tspan></text></g></g><g id="SvgjsG1200" transform="translate(586.7777709960938,650.4375)"><path id="SvgjsPath1201" d="M 0 4Q 0 0 4 0L 142 0Q 146 0 146 4L 146 64Q 146 68 142 68L 4 68Q 0 68 0 64Z" stroke="#323232" stroke-width="2" fill-opacity="1" fill="#ccccff"></path><g id="SvgjsG1202"><text id="SvgjsText1203" font-family="微软雅黑" text-anchor="middle" font-size="13px" width="52" fill="#323232" font-weight="400" align="middle" anchor="middle" family="微软雅黑" size="13px" weight="400" font-style="" y="24.05" transform="rotate(0)"><tspan id="SvgjsTspan1204" dy="16" x="73"><tspan id="SvgjsTspan1205" style="text-decoration:;">主题接口</tspan></tspan></text></g></g><g id="SvgjsG1206" transform="matrix(6.123233995736766e-17,1,-1,6.123233995736766e-17,175.61111450195312,629.6226806640625)"><path id="SvgjsPath1207" d="M 0 0L 110 0L 110 21L 0 21Z" stroke="none" fill="none"></path><g id="SvgjsG1208"><text id="SvgjsText1209" font-family="微软雅黑" text-anchor="middle" font-size="13px" width="39" fill="#323232" font-weight="400" align="middle" anchor="middle" family="微软雅黑" size="13px" weight="400" font-style="" y="0.55" transform="rotate(0)"><tspan id="SvgjsTspan1210" dy="16" x="55"><tspan id="SvgjsTspan1211" style="text-decoration:;">接口层</tspan></tspan></text></g></g><g id="SvgjsG1212" transform="translate(229.77777099609375,503.3263922797296)"><path id="SvgjsPath1213" d="M 0 4Q 0 0 4 0L 554.953710621427 0Q 558.953710621427 0 558.953710621427 4L 558.953710621427 90Q 558.953710621427 94 554.953710621427 94L 4 94Q 0 94 0 90Z" stroke="#323232" stroke-width="2" fill-opacity="1" fill="#ffffff"></path><g id="SvgjsG1214"><text id="SvgjsText1215" font-family="微软雅黑" text-anchor="middle" font-size="13px" width="0" fill="#323232" font-weight="400" align="middle" anchor="middle" family="微软雅黑" size="13px" weight="400" font-style="" y="37.05" transform="rotate(0)"></text></g></g><g id="SvgjsG1216" transform="matrix(6.123233995736766e-17,1,-1,6.123233995736766e-17,253.7438201904297,499.5548095703125)"><path id="SvgjsPath1217" d="M 0 0L 99 0L 99 21L 0 21Z" stroke="none" fill="none"></path><g id="SvgjsG1218"><text id="SvgjsText1219" font-family="微软雅黑" text-anchor="middle" font-size="13px" width="65" fill="#323232" font-weight="400" align="middle" anchor="middle" family="微软雅黑" size="13px" weight="400" font-style="" y="0.55" transform="rotate(0)"><tspan id="SvgjsTspan1220" dy="16" x="49.5"><tspan id="SvgjsTspan1221" style="text-decoration:;">基础组件层</tspan></tspan></text></g></g><g id="SvgjsG1222" transform="translate(283.7981625257239,520.4375)"><path id="SvgjsPath1223" d="M 0 4Q 0 0 4 0L 106 0Q 110 0 110 4L 110 64Q 110 68 106 68L 4 68Q 0 68 0 64Z" stroke="#000000" stroke-width="2" fill-opacity="1" fill="#ffff99"></path><g id="SvgjsG1224"><text id="SvgjsText1225" font-family="微软雅黑" text-anchor="middle" font-size="13px" width="64" fill="#323232" font-weight="400" align="middle" anchor="middle" family="微软雅黑" size="13px" weight="400" font-style="" y="16.05" transform="rotate(0)"><tspan id="SvgjsTspan1226" dy="16" x="55"><tspan id="SvgjsTspan1227" style="text-decoration:;">基础组件</tspan></tspan><tspan id="SvgjsTspan1228" dy="16" x="55"><tspan id="SvgjsTspan1229" style="text-decoration:;">NODE对象</tspan></tspan></text></g></g><g id="SvgjsG1230" transform="translate(419.5,520.4375)"><path id="SvgjsPath1231" d="M 0 4Q 0 0 4 0L 95 0Q 99 0 99 4L 99 64Q 99 68 95 68L 4 68Q 0 68 0 64Z" stroke="#323232" stroke-width="2" fill-opacity="1" fill="#ccff99"></path><g id="SvgjsG1232"><text id="SvgjsText1233" font-family="微软雅黑" text-anchor="middle" font-size="13px" width="76" fill="#323232" font-weight="400" align="middle" anchor="middle" family="微软雅黑" size="13px" weight="400" font-style="" y="16.05" transform="rotate(0)"><tspan id="SvgjsTspan1234" dy="16" x="49.5"><tspan id="SvgjsTspan1235" style="text-decoration:;">基础HTML布</tspan></tspan><tspan id="SvgjsTspan1236" dy="16" x="49.5"><tspan id="SvgjsTspan1237" style="text-decoration:;">局对象</tspan></tspan></text></g></g><g id="SvgjsG1238" transform="translate(534.7777709960938,520.4375)"><path id="SvgjsPath1239" d="M 0 4Q 0 0 4 0L 95 0Q 99 0 99 4L 99 64Q 99 68 95 68L 4 68Q 0 68 0 64Z" stroke="#323232" stroke-width="2" fill-opacity="1" fill="#ccff99"></path><g id="SvgjsG1240"><text id="SvgjsText1241" font-family="微软雅黑" text-anchor="middle" font-size="13px" width="67" fill="#323232" font-weight="400" align="middle" anchor="middle" family="微软雅黑" size="13px" weight="400" font-style="" y="16.05" transform="rotate(0)"><tspan id="SvgjsTspan1242" dy="16" x="49.5"><tspan id="SvgjsTspan1243" style="text-decoration:;">基础WXML</tspan></tspan><tspan id="SvgjsTspan1244" dy="16" x="49.5"><tspan id="SvgjsTspan1245" style="text-decoration:;">布局对象</tspan></tspan></text></g></g><g id="SvgjsG1246" transform="translate(654.7777709960938,520.4375)"><path id="SvgjsPath1247" d="M 0 4Q 0 0 4 0L 95 0Q 99 0 99 4L 99 64Q 99 68 95 68L 4 68Q 0 68 0 64Z" stroke="#323232" stroke-width="2" fill-opacity="1" fill="#9999ff"></path><g id="SvgjsG1248"><text id="SvgjsText1249" font-family="微软雅黑" text-anchor="middle" font-size="13px" width="78" fill="#323232" font-weight="400" align="middle" anchor="middle" family="微软雅黑" size="13px" weight="400" font-style="" y="24.05" transform="rotate(0)"><tspan id="SvgjsTspan1250" dy="16" x="49.5"><tspan id="SvgjsTspan1251" style="text-decoration:;">基础主题对象</tspan></tspan></text></g></g><g id="SvgjsG1252" transform="translate(145.5,339.3263922797297)"><path id="SvgjsPath1253" d="M 0 4Q 0 0 4 0L 643 0Q 647 0 647 4L 647 109Q 647 113 643 113L 4 113Q 0 113 0 109Z" stroke="#323232" stroke-width="2" fill-opacity="1" fill="#ffffff"></path><g id="SvgjsG1254"><text id="SvgjsText1255" font-family="微软雅黑" text-anchor="middle" font-size="13px" width="0" fill="#323232" font-weight="400" align="middle" anchor="middle" family="微软雅黑" size="13px" weight="400" font-style="" y="46.55" transform="rotate(0)"></text></g></g><g id="SvgjsG1256" transform="matrix(6.123233995736766e-17,1,-1,6.123233995736766e-17,178.76543426513734,339.3263871934674)"><path id="SvgjsPath1257" d="M 0 0L 115.12345716688478 0L 115.12345716688478 27.30864122178832L 0 27.30864122178832Z" stroke="none" fill="none"></path><g id="SvgjsG1258"><text id="SvgjsText1259" font-family="微软雅黑" text-anchor="middle" font-size="13px" width="65" fill="#323232" font-weight="400" align="middle" anchor="middle" family="微软雅黑" size="13px" weight="400" font-style="" y="3.70432061089416" transform="rotate(0)"><tspan id="SvgjsTspan1260" dy="16" x="58"><tspan id="SvgjsTspan1261" style="text-decoration:;">自定义组件</tspan></tspan></text></g></g><g id="SvgjsG1262" transform="translate(181.77777099609375,458.3263922797296)"><path id="SvgjsPath1263" d="M 7.260000000000001 0L 14.74 0L 14.74 158L 22 158L 11 169L 0 158L 7.260000000000001 158L 7.260000000000001 0Z" stroke="#323232" stroke-width="2" fill-opacity="1" fill="#ffffff"></path><g id="SvgjsG1264"><text id="SvgjsText1265" font-family="微软雅黑" text-anchor="middle" font-size="13px" width="0" fill="#323232" font-weight="400" align="middle" anchor="middle" family="微软雅黑" size="13px" weight="400" font-style="" y="66.1" transform="rotate(0)"></text></g></g><g id="SvgjsG1266" transform="translate(513.7777709960938,458.3263922797296)"><path id="SvgjsPath1267" d="M 7.260000000000001 0L 14.74 0L 14.74 31L 22 31L 11 42L 0 31L 7.260000000000001 31L 7.260000000000001 0Z" stroke="#323232" stroke-width="2" fill-opacity="1" fill="#ffffff"></path><g id="SvgjsG1268"><text id="SvgjsText1269" font-family="微软雅黑" text-anchor="middle" font-size="13px" width="0" fill="#323232" font-weight="400" align="middle" anchor="middle" family="微软雅黑" size="13px" weight="400" font-style="" y="8.950000000000003" transform="rotate(0)"></text></g></g><g id="SvgjsG1270" transform="translate(230,359.4375)"><path id="SvgjsPath1271" d="M 0 4Q 0 0 4 0L 138 0Q 142 0 142 4L 142 64Q 142 68 138 68L 4 68Q 0 68 0 64Z" stroke="#323232" stroke-width="2" fill-opacity="1" fill="#ffff66"></path><g id="SvgjsG1272"><text id="SvgjsText1273" font-family="微软雅黑" text-anchor="middle" font-size="13px" width="103" fill="#323232" font-weight="400" align="middle" anchor="middle" family="微软雅黑" size="13px" weight="400" font-style="" y="24.05" transform="rotate(0)"><tspan id="SvgjsTspan1274" dy="16" x="71"><tspan id="SvgjsTspan1275" style="text-decoration:;">自定义NODE对象</tspan></tspan></text></g></g><g id="SvgjsG1276" transform="translate(37.66787084765741,339.3263922797297)"><path id="SvgjsPath1277" d="M 0 4Q 0 0 4 0L 90.66425830468518 0Q 94.66425830468518 0 94.66425830468518 4L 94.66425830468518 400.9999961853026Q 94.66425830468518 404.9999961853026 90.66425830468518 404.9999961853026L 4 404.9999961853026Q 0 404.9999961853026 0 400.9999961853026Z" stroke="#323232" stroke-width="2" fill-opacity="1" fill="#0066cc"></path><g id="SvgjsG1278"><text id="SvgjsText1279" font-family="微软雅黑" text-anchor="middle" font-size="13px" width="0" fill="#323232" font-weight="400" align="middle" anchor="middle" family="微软雅黑" size="13px" weight="400" font-style="" y="192.54999809265132" transform="rotate(0)"></text></g></g><g id="SvgjsG1280" transform="translate(42.046289378572965,194.4498494466145)"><path id="SvgjsPath1281" d="M 0 4Q 0 0 4 0L 741.9074212428541 0Q 745.9074212428541 0 745.9074212428541 4L 745.9074212428541 90Q 745.9074212428541 94 741.9074212428541 94L 4 94Q 0 94 0 90Z" stroke="#3333ff" stroke-width="2" fill-opacity="1" fill="#ffcce6"></path><g id="SvgjsG1282"><text id="SvgjsText1283" font-family="微软雅黑" text-anchor="middle" font-size="13px" width="56" fill="#323232" font-weight="400" align="middle" anchor="middle" family="微软雅黑" size="13px" weight="400" font-style="" y="37.05" transform="rotate(0)"><tspan id="SvgjsTspan1284" dy="16" x="373"><tspan id="SvgjsTspan1285" style="text-decoration:;">UIEngine</tspan></tspan></text></g></g><g id="SvgjsG1286" transform="translate(26.5,25.005405002170676)"><path id="SvgjsPath1287" d="M 0 4Q 0 0 4 0L 773 0Q 777 0 777 4L 777 78.7777777777772Q 777 82.7777777777772 773 82.7777777777772L 4 82.7777777777772Q 0 82.7777777777772 0 78.7777777777772Z" stroke="#323232" stroke-width="2" fill-opacity="1" fill="#ff99cc"></path><g id="SvgjsG1288"><text id="SvgjsText1289" font-family="微软雅黑" text-anchor="middle" font-size="13px" width="39" fill="#323232" font-weight="400" align="middle" anchor="middle" family="微软雅黑" size="13px" weight="400" font-style="" y="31.438888888888602" transform="rotate(0)"><tspan id="SvgjsTspan1290" dy="16" x="388.5"><tspan id="SvgjsTspan1291" style="text-decoration:;">应用层</tspan></tspan></text></g></g><g id="SvgjsG1292" transform="translate(409.3333265516491,359.4375)"><path id="SvgjsPath1293" d="M 0 4Q 0 0 4 0L 154.86419677734392 0Q 158.86419677734392 0 158.86419677734392 4L 158.86419677734392 64Q 158.86419677734392 68 154.86419677734392 68L 4 68Q 0 68 0 64Z" stroke="#323232" stroke-width="2" fill-opacity="1" fill="#b3ff66"></path><g id="SvgjsG1294"><text id="SvgjsText1295" font-family="微软雅黑" text-anchor="middle" font-size="13px" width="91" fill="#323232" font-weight="400" align="middle" anchor="middle" family="微软雅黑" size="13px" weight="400" font-style="" y="24.05" transform="rotate(0)"><tspan id="SvgjsTspan1296" dy="16" x="79.5"><tspan id="SvgjsTspan1297" style="text-decoration:;">自定义布局对象</tspan></tspan></text></g></g><g id="SvgjsG1298" transform="translate(589.3333265516492,359.4375)"><path id="SvgjsPath1299" d="M 0 4Q 0 0 4 0L 160.4197523328994 0Q 164.4197523328994 0 164.4197523328994 4L 164.4197523328994 64Q 164.4197523328994 68 160.4197523328994 68L 4 68Q 0 68 0 64Z" stroke="#323232" stroke-width="2" fill-opacity="1" fill="#6666ff"></path><g id="SvgjsG1300"><text id="SvgjsText1301" font-family="微软雅黑" text-anchor="middle" font-size="13px" width="91" fill="#323232" font-weight="400" align="middle" anchor="middle" family="微软雅黑" size="13px" weight="400" font-style="" y="24.05" transform="rotate(0)"><tspan id="SvgjsTspan1302" dy="16" x="82.5"><tspan id="SvgjsTspan1303" style="text-decoration:;">自定义主题对象</tspan></tspan></text></g></g><g id="SvgjsG1304" transform="translate(400.49519253954475,292.1226891411669)"><path id="SvgjsPath1305" d="M 7.260000000000001 0L 14.74 0L 14.74 31L 22 31L 11 42L 0 31L 7.260000000000001 31L 7.260000000000001 0Z" stroke="#323232" stroke-width="2" fill-opacity="1" fill="#ffffff"></path><g id="SvgjsG1306"><text id="SvgjsText1307" font-family="微软雅黑" text-anchor="middle" font-size="13px" width="0" fill="#323232" font-weight="400" align="middle" anchor="middle" family="微软雅黑" size="13px" weight="400" font-style="" y="8.950000000000003" transform="rotate(0)"></text></g></g><g id="SvgjsG1308" transform="translate(46,669.5486145019509)"><path id="SvgjsPath1309" d="M 0 4Q 0 0 4 0L 74 0Q 78 0 78 4L 78 64Q 78 68 74 68L 4 68Q 0 68 0 64Z" stroke="#323232" stroke-width="2" fill-opacity="1" fill="#ffffff"></path><g id="SvgjsG1310"><text id="SvgjsText1311" font-family="微软雅黑" text-anchor="middle" font-size="13px" width="51" fill="#323232" font-weight="400" align="middle" anchor="middle" family="微软雅黑" size="13px" weight="400" font-style="" y="16.05" transform="rotate(0)"><tspan id="SvgjsTspan1312" dy="16" x="39"><tspan id="SvgjsTspan1313" style="text-decoration:;">NODE解</tspan></tspan><tspan id="SvgjsTspan1314" dy="16" x="39"><tspan id="SvgjsTspan1315" style="text-decoration:;">析</tspan></tspan></text></g></g><g id="SvgjsG1316" transform="translate(46,592.783182779948)"><path id="SvgjsPath1317" d="M 0 4Q 0 0 4 0L 74 0Q 78 0 78 4L 78 64Q 78 68 74 68L 4 68Q 0 68 0 64Z" stroke="#323232" stroke-width="2" fill-opacity="1" fill="#ffffff"></path><g id="SvgjsG1318"><text id="SvgjsText1319" font-family="微软雅黑" text-anchor="middle" font-size="13px" width="52" fill="#323232" font-weight="400" align="middle" anchor="middle" family="微软雅黑" size="13px" weight="400" font-style="" y="24.05" transform="rotate(0)"><tspan id="SvgjsTspan1320" dy="16" x="39"><tspan id="SvgjsTspan1321" style="text-decoration:;">尺寸转换</tspan></tspan></text></g></g><g id="SvgjsG1322" transform="translate(46,513.4375)"><path id="SvgjsPath1323" d="M 0 4Q 0 0 4 0L 74 0Q 78 0 78 4L 78 64Q 78 68 74 68L 4 68Q 0 68 0 64Z" stroke="#323232" stroke-width="2" fill-opacity="1" fill="#ffffff"></path><g id="SvgjsG1324"><text id="SvgjsText1325" font-family="微软雅黑" text-anchor="middle" font-size="13px" width="52" fill="#323232" font-weight="400" align="middle" anchor="middle" family="微软雅黑" size="13px" weight="400" font-style="" y="16.05" transform="rotate(0)"><tspan id="SvgjsTspan1326" dy="16" x="39"><tspan id="SvgjsTspan1327" style="text-decoration:;">字符串处</tspan></tspan><tspan id="SvgjsTspan1328" dy="16" x="39"><tspan id="SvgjsTspan1329" style="text-decoration:;">理</tspan></tspan></text></g></g><g id="SvgjsG1330" transform="translate(25,339.3263922797297)"><path id="SvgjsPath1331" d="M 0 0L 120 0L 120 42L 0 42Z" stroke="none" fill="none"></path><g id="SvgjsG1332"><text id="SvgjsText1333" font-family="微软雅黑" text-anchor="middle" font-size="13px" width="39" fill="#ffffff" font-weight="400" align="middle" anchor="middle" family="微软雅黑" size="13px" weight="400" font-style="" y="11.05" transform="rotate(0)"><tspan id="SvgjsTspan1334" dy="16" x="60"><tspan id="SvgjsTspan1335" style="text-decoration:;">工具箱</tspan></tspan></text></g></g><g id="SvgjsG1336" transform="matrix(6.123233995736766e-17,1,-1,6.123233995736766e-17,116.30314721001525,490.6720818413629)"><path id="SvgjsPath1337" d="M 0 0L 22 0L 22 54.44444444444457L 0 54.44444444444457Z" stroke="none" fill="none"></path><g id="SvgjsG1338"><text id="SvgjsText1339" font-family="微软雅黑" text-anchor="middle" font-size="13px" width="9" fill="#323232" font-weight="400" align="middle" anchor="middle" family="微软雅黑" size="13px" weight="400" font-style="" y="17.272222222222286" transform="rotate(0)"><tspan id="SvgjsTspan1340" dy="16" x="11"><tspan id="SvgjsTspan1341" style="text-decoration:;">...</tspan></tspan></text></g></g><g id="SvgjsG1342" transform="translate(25,138.89429389105896)"><path id="SvgjsPath1343" d="M 0 0L 120 0L 120 42L 0 42Z" stroke="none" fill="none"></path><g id="SvgjsG1344"><text id="SvgjsText1345" font-family="微软雅黑" text-anchor="middle" font-size="13px" width="95" fill="#323232" font-weight="400" align="middle" anchor="middle" family="微软雅黑" size="13px" weight="400" font-style="" y="11.05" transform="rotate(0)"><tspan id="SvgjsTspan1346" dy="16" x="60"><tspan id="SvgjsTspan1347" style="text-decoration:;">UIEngine框架层</tspan></tspan></text></g></g></svg>